<?xml version="1.0" encoding="utf-8"?>
<!-- Generator: Adobe Illustrator 17.0.0, SVG Export Plug-In . SVG Version: 6.00 Build 0)  -->
<!DOCTYPE svg PUBLIC "-//W3C//DTD SVG 1.1//EN" "http://www.w3.org/Graphics/SVG/1.1/DTD/svg11.dtd">
<svg version="1.1" xmlns="http://www.w3.org/2000/svg" xmlns:xlink="http://www.w3.org/1999/xlink" x="0px" y="0px" width="471.5px"
	 height="544.833px" viewBox="49.486 14.736 471.5 544.833" enable-background="new 49.486 14.736 471.5 544.833"
	 xml:space="preserve">
<g id="Layer_2_1_">
	<polygon fill="#FCFCFC" points="70.385,406.768 69.465,158.309 284.177,33.284 499.808,156.716 500.728,405.175 286.016,530.2 	"/>
</g>
<g id="Layer_1">
	<g id="Layer_7" display="none">
		
			<rect x="-260.927" y="-434.409" transform="matrix(0.5 0.866 -0.866 0.5 -379.9404 58.2626)" display="inline" fill="#FFF001" width="40.999" height="268.994"/>
	</g>
	<g id="Layer_4" display="none">
		<g id="Layer_10" display="inline">
			<path fill="#1D0976" d="M152.716-255.595l-232.961-134.5l-0.181,0.313c0.072-0.204,0.11-0.313,0.11-0.313l-40.968,23.653
				c0,0,13.829,7.988,20.539,11.858c0.033,0.019,0.066,0.036,0.099,0.053l232.862,134.443L152.716-255.595z"/>
		</g>
	</g>
	<g id="Layer_9" display="none">
		<line display="inline" fill="none" x1="298.405" y1="-110.657" x2="257.716" y2="-134.317"/>
	</g>
	<g id="Layer_20" display="none">
		<line display="inline" fill="none" x1="120.216" y1="-243.088" x2="140.716" y2="-278.595"/>
	</g>
	<g id="Layer_11" display="none">
		<path display="inline" fill="#C60021" d="M257.737-134.4c0,0-0.007,15.97-0.005,23.716c0.002,7.746,40.968-0.054,40.968-0.054"/>
	</g>
	<g id="Layer_3" display="none">
		<rect x="99.716" y="-203.039" display="inline" fill="#C60021" width="41" height="269"/>
	</g>
	<g id="Layer_5" display="none">
		
			<rect x="-48.515" y="-66.415" transform="matrix(0.5 0.866 -0.866 0.5 44.9527 58.3023)" display="inline" fill="#068348" width="40.999" height="268.994"/>
	</g>
	<g id="Layer_13" display="none">
		
			<rect x="417.726" y="268.213" transform="matrix(0.5 0.866 -0.866 0.5 567.8623 -178.1616)" display="inline" opacity="0.5" fill="#068348" enable-background="new    " width="40.999" height="268.994"/>
	</g>
	<g id="Layer_18" display="none">
		<path display="inline" fill="#068348" d="M98.716,18.586c0,0-24.953-32.952-20.5-35.507s20.499-11.763,20.499-11.763"/>
	</g>
	<g id="Layer_12" display="none">
		
			<rect x="430.977" y="260.463" transform="matrix(0.5 0.866 -0.866 0.5 567.7759 -193.5113)" display="inline" opacity="0.5" fill="#1E0118" enable-background="new    " width="40.999" height="268.994"/>
	</g>
	<g id="Layer_6" display="none">
		
			<rect x="-260.933" y="-66.408" transform="matrix(0.5 -0.866 0.866 0.5 -179.1804 -174.1766)" display="inline" fill="#019CDE" width="40.999" height="268.994"/>
	</g>
	<g id="Layer_15" display="none">
		<polyline display="inline" fill="#019CDE" points="-134.205,153.086 -113.705,117.579 -93.173,129.374 		"/>
	</g>
	<g id="Layer_2" display="none">
		<rect x="-367.166" y="-250.419" display="inline" fill="#C70163" width="41" height="269"/>
	</g>
	<g id="Layer_16" display="none">
		<path display="inline" fill="#C70163" d="M-367.166,18.581"/>
		<path display="inline" fill="#C70163" d="M-326.166,18.581c0-5.042-41,0-41,0l41,23.677"/>
	</g>
	<g id="Layer_8" display="none">
	</g>
	<g id="Layer_14" display="none">
		
			<rect x="66.323" y="16.675" transform="matrix(0.5 0.866 -0.866 0.5 142.9235 -17.7371)" display="inline" opacity="0.6" fill="#FFF001" enable-background="new    " width="40.999" height="196.468"/>
	</g>
	<g id="Layer_17" display="none">
		<path display="inline" fill="#FFF001" d="M-367.166-250.345l20.5,35.507L-367.166-250.345z"/>
		<path display="inline" fill="#FFF001" d="M-367.166-203.039c0,0,13.832-7.982,20.539-11.858s-20.539-35.448-20.539-35.448"/>
	</g>
	<g id="Layer_19">
		<path fill="#1D0976" d="M518.716,153.086l-232.961-134.5h-0.071l-40.968,23.653c0,0,13.829,7.988,20.539,11.858
			c0.033,0.019,0.066,0.036,0.099,0.053l232.862,134.443L518.716,153.086z"/>
	</g>
	<g id="Layer_21">
		<path fill="#C60021" d="M518.716,422.099v-269h-0.362c0.213-0.04,0.326-0.061,0.326-0.061l-40.968-23.653
			c0,0-0.003,15.97,0,23.716c0,0.038,0.001,0.075,0.003,0.113v268.885L518.716,422.099L518.716,422.099z"/>
	</g>
	<g id="Layer_22">
		<path fill="#068348" d="M518.68,422.231l0.035-0.061v-47.306c0,0-13.832,7.982-20.539,11.858
			c-0.033,0.019-0.065,0.039-0.096,0.059L265.22,521.224l20.417,35.364L518.68,422.231z"/>
	</g>
	<g id="Layer_23">
		<path fill="#019CDE" d="M285.326,556.731h0.071l40.968-23.653c0,0-13.829-7.988-20.539-11.858
			c-0.033-0.019-0.066-0.036-0.099-0.053L72.865,386.724L52.41,422.153L285.326,556.731z"/>
	</g>
	<g id="Layer_24">
		<path fill="#C70163" d="M52.4,422.147L93.368,445.8c0,0,0.003-15.97,0-23.716c0-0.038-0.001-0.075-0.003-0.112V153.086H52.572
			L52.4,422.147z"/>
	</g>
	<g id="Layer_25">
		<path fill="#FFF001" d="M52.342,152.586l-0.035,0.061v47.306c0,0,0.022-0.012,0.064-0.037c1.029-0.594,14.286-8.245,20.475-11.821
			c0.033-0.019,0.065-0.039,0.096-0.059L265.41,76.914l19.686-11.366l-40.383-23.314L52.342,152.586z"/>
	</g>
</g>
</svg>
